<?xml version="1.0" standalone="no"?>
<!DOCTYPE svg PUBLIC "-//W3C//DTD SVG 20010904//EN"
 "http://www.w3.org/TR/2001/REC-SVG-20010904/DTD/svg10.dtd">
<svg version="1.0" xmlns="http://www.w3.org/2000/svg"
 width="1000.000000pt" height="219.000000pt" viewBox="0 0 1000.000000 219.000000"
 preserveAspectRatio="xMidYMid meet">
<metadata>
Created by potrace 1.15, written by Peter Selinger 2001-2017
</metadata>
<g transform="translate(0.000000,219.000000) scale(0.100000,-0.100000)"
fill="#000000" stroke="none">
<path d="M786 2174 c-325 -64 -568 -256 -691 -545 -68 -157 -95 -303 -95 -512
0 -445 154 -795 432 -980 80 -53 193 -95 316 -119 146 -27 408 -22 522 11 228
66 407 213 514 420 51 100 103 249 90 260 -9 8 -253 71 -273 71 -6 0 -19 -31
-31 -69 -64 -218 -192 -361 -381 -428 -105 -38 -273 -44 -383 -14 -311 85
-481 331 -504 730 -30 513 158 846 523 927 73 16 245 18 317 3 177 -36 314
-164 395 -369 12 -30 27 -55 35 -54 14 1 176 38 240 55 l38 10 -30 80 c-101
277 -317 465 -602 523 -96 20 -334 20 -432 0z"/>
<path d="M2220 1521 c0 -782 9 -917 73 -1093 75 -208 229 -338 472 -400 103
-26 380 -36 493 -19 187 30 310 89 428 206 108 107 153 195 191 381 14 68 17
186 20 822 l4 742 -145 0 -146 0 0 -657 c0 -365 -5 -700 -10 -753 -26 -241
-92 -362 -235 -429 -95 -45 -156 -56 -315 -56 -168 0 -236 17 -339 86 -67 45
-102 86 -138 164 -53 117 -55 151 -60 928 l-5 717 -144 0 -144 0 0 -639z"/>
<path d="M4360 1095 l0 -1065 145 0 145 0 0 471 0 471 243 -4 c236 -3 243 -4
297 -29 136 -65 229 -181 569 -717 l123 -192 179 0 c100 0 179 4 179 9 0 14
-392 622 -447 693 -72 95 -171 189 -239 228 l-61 35 86 21 c189 48 292 107
378 217 59 77 88 146 104 250 24 152 -9 306 -92 433 -93 144 -220 209 -459
234 -52 5 -332 10 -622 10 l-528 0 0 -1065z m1122 804 c121 -26 217 -97 259
-192 35 -77 34 -192 -2 -268 -33 -70 -89 -127 -154 -158 -99 -46 -156 -52
-557 -58 l-378 -6 0 347 0 346 390 0 c251 0 408 -4 442 -11z"/>
<path d="M6680 1113 c-221 -576 -405 -1055 -408 -1065 -4 -17 6 -18 150 -18
l154 0 115 318 115 317 441 3 440 2 81 -207 c44 -115 99 -259 123 -320 l44
-113 164 0 c162 0 163 0 158 21 -3 12 -199 491 -434 1065 l-428 1044 -156 0
-156 0 -403 -1047z m799 108 c61 -161 111 -298 111 -302 0 -5 -155 -9 -345 -9
-190 0 -345 4 -345 9 0 4 49 139 109 299 117 310 177 490 206 611 l18 74 67
-194 c37 -107 117 -326 179 -488z"/>
</g>
</svg>
